<?xml version="1.0" encoding="UTF-8"?>
<svg id="Layer_1" data-name="Layer 1" xmlns="http://www.w3.org/2000/svg" viewBox="0 0 402 201">
  <defs>
    <style>
      .cls-1 {
        letter-spacing: .22em;
      }

      .cls-1, .cls-2, .cls-3, .cls-4, .cls-5, .cls-6, .cls-7, .cls-8, .cls-9, .cls-10, .cls-11, .cls-12, .cls-13, .cls-14, .cls-15, .cls-16, .cls-17, .cls-18, .cls-19, .cls-20, .cls-21, .cls-22, .cls-23, .cls-24 {
        font-family: TTCommonsPro-Bd, 'TT Commons Pro';
      }

      .cls-2 {
        letter-spacing: .21em;
      }

      .cls-2, .cls-25, .cls-3, .cls-26, .cls-5, .cls-27, .cls-28, .cls-7, .cls-29, .cls-9, .cls-30, .cls-12, .cls-13, .cls-14, .cls-31, .cls-32, .cls-33, .cls-20, .cls-34, .cls-35, .cls-36, .cls-23, .cls-37 {
        font-size: 7.98px;
      }

      .cls-38, .cls-25, .cls-39, .cls-26, .cls-27, .cls-28, .cls-29, .cls-30, .cls-31, .cls-40, .cls-32, .cls-41, .cls-33, .cls-42, .cls-43, .cls-44, .cls-34, .cls-45, .cls-35, .cls-46, .cls-47, .cls-48, .cls-49, .cls-50, .cls-37, .cls-51 {
        font-family: TTCommonsPro-Rg, 'TT Commons Pro';
      }

      .cls-38, .cls-34 {
        letter-spacing: .29em;
      }

      .cls-25 {
        letter-spacing: .25em;
      }

      .cls-3, .cls-8, .cls-31, .cls-40 {
        letter-spacing: .27em;
      }

      .cls-52 {
        letter-spacing: .02em;
      }

      .cls-52, .cls-53, .cls-54, .cls-55, .cls-56, .cls-57, .cls-58, .cls-59, .cls-60, .cls-61, .cls-62, .cls-63, .cls-64, .cls-65, .cls-66, .cls-67, .cls-68, .cls-69 {
        font-family: MrsEavesXLSerifNarOT-RegItalic, 'Mrs Eaves XL Serif Nar OT';
        font-size: 8.97px;
        font-style: italic;
      }

      .cls-39, .cls-29 {
        letter-spacing: .29em;
      }

      .cls-26 {
        letter-spacing: .3em;
      }

      .cls-4, .cls-7 {
        letter-spacing: .29em;
      }

      .cls-5 {
        letter-spacing: .3em;
      }

      .cls-6 {
        letter-spacing: .28em;
      }

      .cls-27 {
        letter-spacing: .28em;
      }

      .cls-28 {
        letter-spacing: .29em;
      }

      .cls-9, .cls-18, .cls-37, .cls-51 {
        letter-spacing: .27em;
      }

      .cls-70 {
        fill: #fff;
      }

      .cls-53 {
        letter-spacing: .02em;
      }

      .cls-54 {
        letter-spacing: .02em;
      }

      .cls-30, .cls-42 {
        letter-spacing: .27em;
      }

      .cls-10 {
        letter-spacing: .23em;
      }

      .cls-55 {
        letter-spacing: .03em;
      }

      .cls-11 {
        letter-spacing: .3em;
      }

      .cls-12 {
        letter-spacing: .27em;
      }

      .cls-56 {
        letter-spacing: .02em;
      }

      .cls-57 {
        letter-spacing: .03em;
      }

      .cls-58 {
        letter-spacing: .02em;
      }

      .cls-13 {
        letter-spacing: .3em;
      }

      .cls-14 {
        letter-spacing: .3em;
      }

      .cls-15 {
        letter-spacing: .29em;
      }

      .cls-16 {
        letter-spacing: .28em;
      }

      .cls-59 {
        letter-spacing: .03em;
      }

      .cls-32, .cls-43 {
        letter-spacing: .27em;
      }

      .cls-41 {
        letter-spacing: .28em;
      }

      .cls-71, .cls-36 {
        fill: #231f20;
      }

      .cls-33, .cls-44 {
        letter-spacing: .29em;
      }

      .cls-17 {
        letter-spacing: .3em;
      }

      .cls-60 {
        letter-spacing: .02em;
      }

      .cls-61 {
        letter-spacing: .02em;
      }

      .cls-62 {
        letter-spacing: .02em;
      }

      .cls-63 {
        letter-spacing: .02em;
      }

      .cls-19 {
        letter-spacing: .27em;
      }

      .cls-20 {
        letter-spacing: .29em;
      }

      .cls-64 {
        letter-spacing: .02em;
      }

      .cls-65 {
        letter-spacing: .05em;
      }

      .cls-21 {
        letter-spacing: .29em;
      }

      .cls-45 {
        letter-spacing: .29em;
      }

      .cls-35 {
        letter-spacing: .26em;
      }

      .cls-46 {
        letter-spacing: .26em;
      }

      .cls-66 {
        letter-spacing: .02em;
      }

      .cls-22 {
        letter-spacing: .3em;
      }

      .cls-47 {
        letter-spacing: .29em;
      }

      .cls-67 {
        letter-spacing: 0em;
      }

      .cls-48 {
        letter-spacing: .27em;
      }

      .cls-23 {
        letter-spacing: .27em;
      }

      .cls-49 {
        letter-spacing: .28em;
      }

      .cls-68 {
        letter-spacing: .01em;
      }

      .cls-50 {
        letter-spacing: .28em;
      }

      .cls-24 {
        letter-spacing: .26em;
      }

      .cls-69 {
        letter-spacing: .03em;
      }
    </style>
  </defs>
  <rect class="cls-70" width="402" height="201"/>
  <text class="cls-36" transform="translate(93.2 26.42)"><tspan class="cls-6" x="0" y="0">S</tspan><tspan class="cls-1" x="6.92" y="0">A</tspan><tspan class="cls-16" x="13.87" y="0">T</tspan><tspan class="cls-21" x="20.72" y="0">U</tspan><tspan class="cls-4" x="28.58" y="0">R</tspan><tspan class="cls-24" x="35.96" y="0">D</tspan><tspan class="cls-10" x="43.49" y="0">A</tspan><tspan class="cls-8" x="50.51" y="0">Y </tspan><tspan class="cls-44" x="61.56" y="0">N</tspan><tspan class="cls-46" x="69.35" y="0">O</tspan><tspan class="cls-49" x="77.32" y="0">V</tspan><tspan class="cls-48" x="84.45" y="0">E</tspan><tspan class="cls-50" x="91.19" y="0">M</tspan><tspan class="cls-39" x="100.08" y="0">B</tspan><tspan class="cls-42" x="107.28" y="0">E</tspan><tspan class="cls-40" x="114.01" y="0">R </tspan><tspan class="cls-47" x="125.09" y="0">2</tspan><tspan class="cls-45" x="131.64" y="0">2</tspan><tspan class="cls-40" x="138.16" y="0">, </tspan><tspan class="cls-41" x="145.85" y="0">2</tspan><tspan class="cls-38" x="152.31" y="0">0</tspan><tspan class="cls-43" x="159.37" y="0">2</tspan><tspan class="cls-51" x="165.77" y="0">5 </tspan><tspan class="cls-15" x="176.4" y="0">5</tspan><tspan class="cls-22" x="183.31" y="0">:</tspan><tspan class="cls-11" x="187.56" y="0">3</tspan><tspan class="cls-17" x="194.33" y="0">0</tspan><tspan class="cls-19" x="201.64" y="0">P</tspan><tspan class="cls-18" x="208.74" y="0">M</tspan></text>
  <text class="cls-71" transform="translate(45.09 178.19)"><tspan class="cls-7" x="0" y="0">R</tspan><tspan class="cls-14" x="7.37" y="0">E</tspan><tspan class="cls-12" x="14.49" y="0">P</tspan><tspan class="cls-2" x="21.59" y="0">L</tspan><tspan class="cls-3" x="27.62" y="0">Y </tspan><tspan class="cls-20" x="38.67" y="0">O</tspan><tspan class="cls-9" x="47.01" y="0">N </tspan><tspan class="cls-20" x="59.1" y="0">O</tspan><tspan class="cls-9" x="67.44" y="0">R </tspan><tspan class="cls-13" x="78.86" y="0">B</tspan><tspan class="cls-5" x="86.31" y="0">E</tspan><tspan class="cls-23" x="93.43" y="0">F</tspan><tspan class="cls-20" x="100.16" y="0">O</tspan><tspan class="cls-7" x="108.5" y="0">R</tspan><tspan class="cls-3" x="115.87" y="0">E </tspan><tspan class="cls-28" x="126.97" y="0">O</tspan><tspan class="cls-35" x="135.16" y="0">C</tspan><tspan class="cls-25" x="142.89" y="0">T</tspan><tspan class="cls-33" x="149.18" y="0">O</tspan><tspan class="cls-29" x="157.34" y="0">B</tspan><tspan class="cls-30" x="164.54" y="0">E</tspan><tspan class="cls-31" x="171.28" y="0">R </tspan><tspan class="cls-34" x="182.36" y="0">3</tspan><tspan class="cls-26" x="188.89" y="0">1</tspan><tspan class="cls-37" x="193.92" y="0">, </tspan><tspan class="cls-27" x="201.61" y="0">2</tspan><tspan class="cls-34" x="208.07" y="0">0</tspan><tspan class="cls-32" x="215.13" y="0">2</tspan><tspan class="cls-31" x="221.53" y="0">5 | </tspan><tspan class="cls-61" x="241" y="0">n</tspan><tspan class="cls-69" x="245.36" y="0">f</tspan><tspan class="cls-64" x="247.92" y="0">x</tspan><tspan class="cls-58" x="251.47" y="0">d</tspan><tspan class="cls-53" x="255.65" y="0">e</tspan><tspan class="cls-59" x="259.18" y="0">t</tspan><tspan class="cls-68" x="261.76" y="0">r</tspan><tspan class="cls-60" x="264.71" y="0">o</tspan><tspan class="cls-63" x="268.8" y="0">i</tspan><tspan class="cls-56" x="270.98" y="0">t</tspan><tspan class="cls-67" x="273.5" y="0">.</tspan><tspan class="cls-52" x="275.77" y="0">or</tspan><tspan class="cls-57" x="282.89" y="0">g</tspan><tspan class="cls-65" x="286.56" y="0">/</tspan><tspan class="cls-55" x="289.7" y="0">b</tspan><tspan class="cls-62" x="293.79" y="0">e</tspan><tspan class="cls-66" x="297.3" y="0">n</tspan><tspan class="cls-64" x="301.65" y="0">e</tspan><tspan class="cls-54" x="305.19" y="0">fit</tspan></text>
  <path class="cls-71" d="M6.5,136.77l-.65-1.83h-3.36l-.65,1.83H0l3.32-8.9h1.78l3.31,8.9h-1.91ZM4.17,130.14l-1.08,3.13h2.16l-1.08-3.13ZM28.92,134.23c0,1.41-1.18,2.54-2.91,2.54h-3.93v-8.9h3.78c1.6,0,2.71,1.06,2.71,2.38,0,1.03-.62,1.6-1.14,1.79.62.23,1.5.89,1.5,2.19ZM23.89,129.42v1.97h1.74c.64,0,1.11-.42,1.11-.99s-.47-.98-1.11-.98h-1.74ZM25.8,135.22c.76,0,1.3-.48,1.3-1.17s-.53-1.16-1.3-1.16h-1.91v2.33h1.91ZM35.13,136.77v-8.9h1.82v7.15h4.13v1.75h-5.95ZM52.84,136.77l-.65-1.83h-3.36l-.65,1.83h-1.84l3.32-8.9h1.78l3.31,8.9h-1.91ZM50.51,130.14l-1.08,3.13h2.16l-1.08-3.13ZM59.57,132.32c0-2.57,2-4.61,4.37-4.61,2.24,0,3.64,1.69,4.03,3.33h-1.89c-.2-.75-.93-1.58-2.14-1.58-1.37,0-2.56,1.21-2.56,2.86s1.18,2.86,2.56,2.86c1.21,0,1.93-.83,2.2-1.56h1.89c-.38,1.61-1.81,3.32-4.09,3.32s-4.37-2.05-4.37-4.62ZM81.14,136.77h-2.26l-2.92-3.99v3.99h-1.82v-8.9h1.82v3.85l2.78-3.85h2.15l-3.19,4.32,3.45,4.58ZM100.26,136.77l-.65-1.83h-3.36l-.65,1.83h-1.84l3.32-8.9h1.78l3.31,8.9h-1.91ZM97.93,130.14l-1.08,3.13h2.16l-1.08-3.13ZM113.44,127.87h1.75v8.9h-1.67l-3.95-5.82v5.82h-1.75v-8.9h1.67l3.95,5.82v-5.82ZM121.86,136.77v-8.9h2.95c2.44,0,4.4,1.98,4.4,4.45s-2.01,4.45-4.4,4.45h-2.95ZM123.67,135.02h1.13c1.37,0,2.58-1.16,2.58-2.7s-1.21-2.7-2.58-2.7h-1.13v5.39ZM152.44,127.87h1.82l-2.8,8.9h-1.47l-1.58-5.44-1.58,5.44h-1.5l-2.78-8.9h1.87l1.69,5.73,1.64-5.73h1.36l1.64,5.73,1.69-5.73ZM165.44,127.87h1.82v8.9h-1.82v-3.67h-3.64v3.67h-1.82v-8.9h1.82v3.47h3.64v-3.47ZM173.92,136.77v-8.9h1.82v8.9h-1.82ZM184.08,136.77v-7.15h-2.58v-1.75h6.98v1.75h-2.58v7.15h-1.82ZM196.06,135.04h4.4v1.73h-6.22v-8.9h6.09v1.73h-4.27v1.79h3.79v1.68h-3.79v1.97ZM220.3,127.87h1.75v8.9h-1.66l-3.95-5.82v5.82h-1.75v-8.9h1.66l3.95,5.82v-5.82ZM228.72,136.77v-8.9h1.82v8.9h-1.82ZM241.15,132.08h4.07v4.69h-1.07l-.32-1.17c-.48.65-1.49,1.34-2.77,1.34-2.38,0-4.37-2.05-4.37-4.62s2-4.61,4.37-4.61c2.24,0,3.71,1.6,4.03,3.08h-1.89c-.22-.57-.93-1.32-2.14-1.32-1.37,0-2.56,1.21-2.56,2.86s1.18,2.86,2.56,2.86,2.05-.94,2.22-1.55h-2.14v-1.55ZM257.24,127.87h1.82v8.9h-1.82v-3.67h-3.64v3.67h-1.82v-8.9h1.82v3.47h3.64v-3.47ZM267.41,136.77v-7.15h-2.58v-1.75h6.98v1.75h-2.58v7.15h-1.82ZM287.61,136.77v-7.15h-2.58v-1.75h6.98v1.75h-2.58v7.15h-1.82ZM297.19,132.32c0-2.57,2-4.61,4.37-4.61s4.37,2.05,4.37,4.61-2,4.62-4.37,4.62-4.37-2.05-4.37-4.62ZM304.12,132.32c0-1.65-1.18-2.86-2.56-2.86s-2.56,1.21-2.56,2.86,1.18,2.86,2.56,2.86,2.56-1.21,2.56-2.86ZM319.63,132.32c0-2.57,2-4.61,4.37-4.61,2.24,0,3.64,1.69,4.03,3.33h-1.89c-.2-.75-.93-1.58-2.14-1.58-1.37,0-2.56,1.21-2.56,2.86s1.18,2.86,2.56,2.86c1.21,0,1.93-.83,2.2-1.56h1.89c-.38,1.61-1.81,3.32-4.09,3.32s-4.37-2.05-4.37-4.62ZM334.07,133.35v-5.48h1.82v5.48c0,1.04.64,1.83,1.77,1.83s1.77-.79,1.77-1.83v-5.48h1.82v5.48c0,2.02-1.42,3.59-3.58,3.59s-3.59-1.56-3.59-3.59ZM352.63,136.77l-1.78-3.2h-1.18v3.2h-1.82v-8.9h3.61c1.73,0,3.01,1.19,3.01,2.87,0,1.13-.71,2.1-1.84,2.54l2.1,3.48h-2.1ZM349.66,129.6v2.31h1.74c.71,0,1.25-.48,1.25-1.16s-.53-1.16-1.25-1.16h-1.74ZM362.58,135.04h4.4v1.73h-6.22v-8.9h6.09v1.73h-4.27v1.79h3.79v1.68h-3.79v1.97ZM386.82,127.87h1.75v8.9h-1.66l-3.95-5.82v5.82h-1.75v-8.9h1.66l3.95,5.82v-5.82ZM401.25,129.63h-4.2v2.14h3.61v1.68h-3.61v3.33h-1.82v-8.9h6.01v1.75ZM37.06,96.11c0,7.59-6.36,13.67-15.66,13.67H.27v-47.86h20.31c8.61,0,14.56,5.67,14.56,12.78,0,5.54-3.35,8.61-6.15,9.64,3.35,1.23,8.07,4.79,8.07,11.76ZM10.05,70.27v10.6h9.37c3.42,0,5.95-2.26,5.95-5.33s-2.53-5.26-5.95-5.26h-9.37ZM20.31,101.45c4.1,0,6.97-2.6,6.97-6.29s-2.87-6.22-6.97-6.22h-10.25v12.51h10.25ZM67.04,100.49h23.65v9.3h-33.43v-47.86h32.75v9.3h-22.97v9.64h20.37v9.02h-20.37v10.6ZM141.63,61.93h9.43v47.86h-8.96l-21.26-31.31v31.31h-9.43v-47.86h8.96l21.26,31.31v-31.31ZM183.47,100.49h23.65v9.3h-33.43v-47.86h32.75v9.3h-22.97v9.64h20.37v9.02h-20.37v10.6ZM260.19,71.37h-22.56v11.49h19.42v9.02h-19.42v17.91h-9.78v-47.86h32.34v9.43ZM279.32,109.79v-47.86h9.78v47.86h-9.78ZM320.61,109.79v-38.42h-13.88v-9.43h37.53v9.43h-13.88v38.42h-9.78ZM373.14,91.33c-.4-.48-.99-.72-1.76-.72-2.42,0-4.25,3.21-5.6,6.2l-.51-2.47c-.48-2.24-1.22-3.73-3.29-3.73-1.01,0-2.52.78-3.51,1.82l-.05.05v1.69l.3-.3c.36-.36,1.46-1.09,1.95-1.09.58,0,.86.48,1.23,2.04l1.34,6.17-1.06,2.07-.15.28c-.99,1.9-2.5,4.76-3.38,4.76-.29,0-.49-.06-.58-.17-.14-.16-.1-.49-.06-.8.05-.38.11-.78-.13-1.05-.16-.18-.42-.27-.79-.27-.54,0-.99.75-1.11,1.44-.11.57-.05,1.39.45,2.01.4.49,1,.75,1.75.75,2.34,0,4.14-3.06,5.6-6.21l.51,2.44c.54,2.45,1.22,3.78,3.29,3.78,1.01,0,2.46-.77,3.51-1.87l.05-.05v-1.74l-.31.36c-.34.39-1.4,1.13-1.94,1.13s-.93-.63-1.23-2.04l-1.29-6.23,1.01-2.07c.62-1.25,2.52-5.05,3.53-5.05.3,0,.51.06.61.17.14.17.09.49.05.8-.06.38-.11.77.12,1.04.16.18.41.27.78.27.52,0,.99-.69,1.11-1.34.15-.8-.02-1.58-.45-2.09ZM379.67,107.6c-.13,0-.22-.04-.29-.13-.22-.26-.26-.91-.1-1.79l1.97-11.07c.22-1.26.03-2.32-.54-3-.44-.52-1.08-.79-1.87-.79-.99,0-2.43.75-3.5,1.82l-.05.05v1.79l.31-.36c.34-.39,1.4-1.13,1.94-1.13.12,0,.21.04.28.11.2.24.23.87.07,1.86l-1.92,11.02c-.22,1.28-.03,2.36.55,3.05.44.52,1.08.8,1.86.8.96,0,2.4-.77,3.5-1.87l.05-.05v-1.7l-.3.3c-.38.38-1.42,1.09-1.95,1.09ZM383.13,81.95c-.34-.38-.81-.59-1.34-.59-1.08,0-2.09.91-2.2,1.98-.06.53.11,1.05.45,1.43.34.38.81.59,1.34.59,1.08,0,2.09-.91,2.2-1.98.06-.53-.11-1.05-.45-1.43ZM388.87,107.6c-.13,0-.22-.04-.29-.13-.22-.26-.26-.91-.1-1.79l1.97-11.07c.22-1.26.03-2.32-.54-3-.44-.52-1.08-.79-1.87-.79-.99,0-2.43.75-3.5,1.82l-.05.05v1.79l.31-.36c.34-.39,1.4-1.13,1.94-1.13.12,0,.21.04.28.11.2.24.23.87.07,1.86l-1.92,11.02c-.22,1.28-.03,2.36.55,3.05.44.52,1.08.8,1.86.8.96,0,2.4-.77,3.5-1.87l.05-.05v-1.7l-.3.3c-.38.38-1.42,1.09-1.95,1.09ZM392.34,81.95c-.34-.38-.81-.59-1.34-.59-1.08,0-2.09.91-2.2,1.98-.06.53.11,1.05.45,1.43.34.38.81.59,1.34.59,1.08,0,2.09-.91,2.2-1.98.06-.53-.11-1.05-.45-1.43ZM401.54,81.95c-.34-.38-.81-.59-1.34-.59-1.08,0-2.09.91-2.2,1.98-.06.53.11,1.05.45,1.43.34.38.81.59,1.34.59,1.08,0,2.09-.91,2.2-1.98.06-.53-.11-1.05-.45-1.43ZM398.07,107.6c-.13,0-.22-.04-.29-.13-.22-.26-.26-.91-.1-1.79l1.97-11.07c.22-1.26.03-2.32-.54-3-.44-.52-1.08-.79-1.87-.79-.99,0-2.43.75-3.5,1.82l-.05.05v1.79l.31-.36c.34-.39,1.4-1.13,1.94-1.13.12,0,.21.04.28.11.2.24.23.87.07,1.86l-1.92,11.02c-.22,1.28-.03,2.36.55,3.05.44.52,1.08.8,1.86.8.96,0,2.4-.77,3.5-1.87l.05-.05v-1.7l-.3.3c-.38.38-1.42,1.09-1.95,1.09Z"/>
</svg>